<?xml version="1.0" encoding="utf-8"?>
<!-- Generator: Adobe Illustrator 14.0.0, SVG Export Plug-In . SVG Version: 6.00 Build 43363)  -->
<!DOCTYPE svg PUBLIC "-//W3C//DTD SVG 1.1//EN" "http://www.w3.org/Graphics/SVG/1.1/DTD/svg11.dtd">
<svg version="1.1" id="Layer_1" xmlns="http://www.w3.org/2000/svg" xmlns:xlink="http://www.w3.org/1999/xlink" x="0px" y="0px"
	 width="400px" height="124px" viewBox="-100 -31 400 124" enable-background="new -100 -31 400 124" xml:space="preserve">
<g>
	<path fill="#5D87A1" d="M-38.151,18.42c0,0.47-0.449,0.704-1.338,0.704c-0.396,0-0.64-0.176-0.741-0.521
		c-1.061-3.478-2.58-5.94-4.56-7.382c-1.975-1.443-4.894-2.167-8.774-2.167h-3.481c-1.207,0-2.037,0.202-2.482,0.599
		c-0.443,0.394-0.665,1.129-0.665,2.224v37.638c0,1.708,0.214,2.915,0.645,3.624c0.43,0.699,1.203,1.263,2.302,1.671
		c1.102,0.4,2.677,0.733,4.729,0.975c0.393,0.048,0.597,0.378,0.597,0.988c0,0.681-0.204,1.029-0.597,1.029
		c-1.655,0-3.637-0.073-5.938-0.215c-2.173-0.146-4-0.207-5.467-0.207c-1.515,0-3.37,0.062-5.579,0.207
		c-2.297,0.142-4.273,0.215-5.928,0.215c-0.396,0-0.593-0.351-0.593-1.029c0-0.61,0.197-0.94,0.593-0.988
		c2.991-0.347,5.022-0.896,6.095-1.668c1.079-0.767,1.618-2.297,1.618-4.602V11.876c0-1.095-0.225-1.831-0.665-2.224
		c-0.449-0.396-1.291-0.599-2.527-0.599h-2.885c-3.488,0-6.652,0.881-9.497,2.648c-2.833,1.76-4.691,4.049-5.556,6.864
		c-0.125,0.369-0.397,0.558-0.82,0.558c-0.841,0-1.262-0.274-1.262-0.811c1.389-3.725,2.694-7.938,3.93-12.648
		c3.36,0.704,11.05,1.062,23.067,1.062c12.337,0,20.186-0.357,23.554-1.062C-40.03,8.869-39.289,13.124-38.151,18.42"/>
	<path fill="#5D87A1" d="M65.933,45.62c-2.003,4.257-3.637,8.314-4.896,12.181c-9.303-0.289-15.927-0.426-19.874-0.426
		c-3.898,0-10.52,0.135-19.856,0.426c-0.395,0-0.595-0.351-0.595-1.029c0-0.61,0.2-0.94,0.595-0.988
		c2.048-0.241,3.623-0.574,4.706-0.975c1.093-0.408,1.846-0.964,2.284-1.659c0.433-0.686,0.651-1.9,0.651-3.636V14.617
		c0-1.705-0.208-2.911-0.614-3.615c-0.404-0.696-1.152-1.267-2.247-1.683c-1.091-0.424-2.678-0.753-4.782-1.002
		c-0.395,0-0.595-0.337-0.595-1.009c0-0.668,0.2-1.008,0.595-1.008C27.523,6.584,33.9,6.727,40.407,6.727
		c6.556,0,12.927-0.143,19.119-0.427c0.565,3.827,1.393,7.607,2.475,11.336c0,0.498-0.435,0.745-1.322,0.745
		c-0.431,0-0.696-0.174-0.794-0.527c-1.823-5.868-5.714-8.801-11.676-8.801h-7.457c-2.862,0-4.286,1.483-4.286,4.459V30.04h9.328
		c2.48,0,4.163-0.579,5.042-1.711c0.883-1.149,1.495-3.172,1.842-6.076c0-0.394,0.33-0.592,1.005-0.592
		c0.674,0,1.011,0.198,1.011,0.592c0,1.246-0.075,2.802-0.213,4.679c-0.148,1.809-0.209,3.288-0.209,4.426
		c0,1.162,0.061,2.653,0.209,4.454c0.138,1.933,0.213,3.521,0.213,4.754c0,0.392-0.336,0.597-1.011,0.597
		c-0.675,0-1.005-0.205-1.005-0.597c-0.375-3.034-1.03-5.156-1.954-6.371c-0.931-1.219-2.576-1.828-4.931-1.828h-9.327v18.286
		c0,2.921,1.432,4.389,4.303,4.389h8.062c2.944,0,5.857-0.956,8.757-2.877c2.882-1.916,5.012-4.307,6.366-7.173
		c0.099-0.223,0.309-0.337,0.63-0.337c0.345,0,0.655,0.094,0.925,0.275C65.79,45.126,65.933,45.343,65.933,45.62"/>
	<path fill="#5D87A1" d="M135.651,7.327c0,0.612-0.195,0.939-0.594,0.989c-3.099,0.35-5.215,0.912-6.368,1.708
		c-1.149,0.789-1.747,2.307-1.793,4.551l-0.849,43.65c0,0.495-0.295,0.736-0.886,0.736c-0.303,0-0.691-0.199-1.182-0.591
		L85.783,15.245l-0.532,34.277c-0.029,0.201-0.04,0.382-0.04,0.552c0,1.882,0.599,3.205,1.78,3.989
		c1.189,0.771,3.325,1.349,6.417,1.718c0.395,0.05,0.59,0.38,0.59,0.989c0,0.68-0.195,1.03-0.59,1.03
		c-1.276,0-3.052-0.073-5.302-0.217c-2.099-0.146-3.716-0.209-4.845-0.209c-1.23,0-2.888,0.063-4.995,0.209
		c-2.028,0.144-3.592,0.217-4.706,0.217c-0.4,0-0.596-0.353-0.596-1.03c0-0.609,0.221-0.939,0.668-0.989
		c3.064-0.369,5.165-0.946,6.307-1.718c1.126-0.784,1.741-2.297,1.819-4.55l1.268-34.897v-0.332c0-2.003-0.584-3.401-1.746-4.19
		c-1.157-0.793-3.323-1.385-6.488-1.779c-0.347,0-0.521-0.337-0.521-1.009c0-0.668,0.193-1.008,0.592-1.008
		c0.865,0,2.078,0.07,3.633,0.214c1.389,0.144,2.426,0.211,3.117,0.211c0.859,0,1.905-0.068,3.124-0.211
		c1.24-0.144,2.307-0.214,3.19-0.214l35.684,39.858V14.588c0-2.107-0.602-3.586-1.801-4.438c-1.196-0.854-3.418-1.461-6.659-1.836
		c-0.396-0.049-0.591-0.375-0.591-0.989c0-0.685,0.195-1.026,0.591-1.026c1.337,0,3.118,0.07,5.345,0.214
		c2.076,0.144,3.684,0.211,4.827,0.211c1.239,0,2.92-0.068,5.02-0.211c2.026-0.144,3.598-0.214,4.715-0.214
		C135.456,6.301,135.651,6.643,135.651,7.327"/>
	<path fill="#5D87A1" d="M192.113,18.42c0,0.47-0.442,0.704-1.326,0.704c-0.398,0-0.644-0.176-0.739-0.521
		c-1.07-3.478-2.584-5.94-4.56-7.382c-1.98-1.443-4.902-2.167-8.783-2.167h-3.478c-1.21,0-2.038,0.202-2.48,0.599
		c-0.45,0.394-0.671,1.129-0.671,2.224v37.638c0,1.708,0.217,2.915,0.651,3.624c0.426,0.699,1.199,1.263,2.296,1.671
		c1.104,0.4,2.674,0.733,4.731,0.975c0.396,0.048,0.59,0.378,0.59,0.988c0,0.681-0.193,1.029-0.59,1.029
		c-1.661,0-3.632-0.073-5.937-0.215c-2.181-0.146-4.004-0.207-5.462-0.207c-1.518,0-3.376,0.062-5.587,0.207
		c-2.302,0.142-4.275,0.215-5.931,0.215c-0.393,0-0.594-0.351-0.594-1.029c0-0.61,0.201-0.94,0.594-0.988
		c2.992-0.347,5.023-0.896,6.1-1.668c1.079-0.767,1.617-2.297,1.617-4.602V11.876c0-1.095-0.23-1.831-0.673-2.224
		c-0.442-0.396-1.277-0.599-2.515-0.599h-2.897c-3.486,0-6.647,0.881-9.482,2.648c-2.847,1.76-4.697,4.049-5.563,6.864
		c-0.126,0.369-0.4,0.558-0.815,0.558c-0.848,0-1.265-0.274-1.265-0.811c1.383-3.725,2.689-7.94,3.923-12.648
		c3.356,0.704,11.054,1.062,23.069,1.062c12.334,0,20.188-0.357,23.558-1.062C190.233,8.869,190.979,13.124,192.113,18.42"/>
	<path fill="#5D87A1" d="M52.215,72.379c-5.223,3.173-9.567,5.554-19.5,1.719c-4.922-1.91-8.726-5.054-13.638-10.32
		c-1.638-1.747-3.401-3.952-5.118-6.262c0.023,0.004,0.042,0.004,0.062,0.004c-0.375-0.474-0.755-0.972-1.135-1.478
		C11.433,54.03,10.034,52,8.82,50.168l-5.202-8.419c-0.131-0.221-0.285-0.483-0.408-0.695l-0.02,0.008l-5.56-8.997
		c3.423-1.226,6.132-2.964,8.137-5.223c2.01-2.252,3.011-4.708,3.011-7.342c0-4.185-1.512-7.425-4.529-9.732
		C1.228,7.457-3.037,6.301-8.557,6.301c-1.662,0-3.639,0.07-5.936,0.214c-2.212,0.144-4.067,0.211-5.574,0.211
		c-1.513,0-3.354-0.068-5.534-0.211c-2.274-0.144-4.243-0.214-5.896-0.214c-0.393,0-0.591,0.339-0.591,1.009
		c0,0.67,0.198,1.007,0.591,1.007c2.103,0.249,3.695,0.579,4.789,1.003c1.082,0.418,1.83,0.987,2.242,1.683
		c0.402,0.702,0.612,1.911,0.612,3.615v34.897c0,1.737-0.214,2.95-0.647,3.634c-0.438,0.695-1.194,1.253-2.283,1.661
		c-1.089,0.4-2.656,0.733-4.71,0.975c-0.393,0.05-0.591,0.38-0.591,0.988c0,0.681,0.199,1.031,0.591,1.031
		c1.653,0,3.623-0.073,5.896-0.217c2.166-0.146,4.008-0.209,5.505-0.209c1.509,0,3.349,0.063,5.545,0.209
		c2.292,0.144,4.275,0.217,5.935,0.217c0.394,0,0.594-0.353,0.594-1.031c0-0.608-0.215-0.938-0.633-0.988
		c-2.055-0.241-3.629-0.564-4.73-0.975c-1.099-0.408-1.864-0.964-2.297-1.665c-0.434-0.703-0.651-1.906-0.651-3.605V33.642
		c2.954,0,4.916,0.356,5.897,1.073c0.983,0.716,2.263,2.331,3.853,4.849l4.863,7.861l0.189,0.311l-0.147,0.027
		c1.391,2.199,2.787,4.371,4.202,6.528l1.226,1.984l0.943,1.529H4.71c0.053,0,0.122-0.004,0.178-0.004
		c1.194,1.767,2.379,3.532,3.624,5.259c4.384,6.004,9.697,11.247,16.907,14.032c12.365,4.776,20.897,1.065,27.544-3.536
		L52.215,72.379z M-10.891,31.498c-2.188,0-4.004-0.096-5.443-0.295V14.626c0-1.814,0.184-3.078,0.543-3.801
		c0.357-0.718,1.079-1.246,2.164-1.583c1.073-0.328,2.662-0.505,4.748-0.505c6.334,0,9.503,3.625,9.503,10.875
		c0,4.153-0.919,7.17-2.759,9.052C-3.975,30.556-6.895,31.498-10.891,31.498"/>
	<path fill="#898A3D" d="M80.59,81.32c0,4.566-2.309,7.014-6.314,7.014c-4.008,0-6.315-2.447-6.315-7.014v-9.527h2.331v9.227
		c0,3.124,0.977,5.266,3.985,5.266c3.004,0,3.983-2.142,3.983-5.266v-9.227h2.331V81.32z"/>
	<polygon fill="#898A3D" points="94.292,71.793 97.459,71.793 104.634,84.887 104.682,84.887 104.682,71.793 107.011,71.793 
		107.011,88.054 104.03,88.054 96.667,74.682 96.617,74.682 96.617,88.054 94.292,88.054 	"/>
	<rect x="121.616" y="71.793" fill="#898A3D" width="2.332" height="16.261"/>
	<polygon fill="#898A3D" points="145.104,88.054 142.191,88.054 136.064,71.793 138.672,71.793 143.682,86.004 143.728,86.004 
		148.877,71.793 151.323,71.793 	"/>
	<polygon fill="#898A3D" points="163.906,71.793 173.016,71.793 173.016,73.843 166.233,73.843 166.233,78.596 172.408,78.596 
		172.408,80.646 166.233,80.646 166.233,86.004 173.016,86.004 173.016,88.054 163.906,88.054 	"/>
	<path fill="#898A3D" d="M187.084,71.793h3.985c3.214,0,6.313,0.512,6.313,4.402c0,1.981-1.467,3.38-3.355,3.705v0.046
		c0.724,0.28,1.072,0.627,1.588,1.633l3.07,6.475h-2.654l-2.495-5.636c-0.72-1.588-1.49-1.588-2.724-1.588h-1.396v7.224h-2.332
		V71.793L187.084,71.793z M189.418,78.781h1.98c2.211,0,3.518-0.979,3.518-2.54c0-1.467-1.119-2.398-3.261-2.398h-2.237V78.781z"/>
	<path fill="#898A3D" d="M219.332,74.237c-1.189-0.463-1.842-0.676-3.056-0.676c-1.303,0-2.839,0.466-2.839,2.167
		c0,3.12,6.988,2.398,6.988,7.758c0,3.47-2.683,4.846-5.942,4.846c-1.141,0-2.257-0.326-3.33-0.675l0.233-2.169
		c0.79,0.328,2.188,0.793,3.378,0.793c1.327,0,3.191-0.745,3.191-2.656c0-3.637-6.99-2.635-6.99-7.687
		c0-2.893,2.283-4.431,5.223-4.431c1.068,0,2.353,0.189,3.471,0.584L219.332,74.237z"/>
	<rect x="234.077" y="71.793" fill="#898A3D" width="2.331" height="16.261"/>
	<polygon fill="#898A3D" points="253.46,73.843 248.402,73.843 248.402,71.793 260.85,71.793 260.85,73.843 255.794,73.843 
		255.794,88.054 253.46,88.054 	"/>
	<polygon fill="#898A3D" points="276.808,81.253 270.449,71.793 273.169,71.793 278.02,79.084 282.75,71.793 285.474,71.793 
		279.135,81.253 279.135,88.054 276.808,88.054 	"/>
	<path fill="#00502F" d="M80.59,81.32c0,4.566-2.309,7.014-6.314,7.014c-4.008,0-6.315-2.447-6.315-7.014v-9.527h2.331v9.227
		c0,3.124,0.977,5.266,3.985,5.266c3.004,0,3.983-2.142,3.983-5.266v-9.227h2.331V81.32z"/>
	<polygon fill="#00502F" points="94.292,71.793 97.459,71.793 104.634,84.887 104.682,84.887 104.682,71.793 107.011,71.793 
		107.011,88.054 104.03,88.054 96.667,74.682 96.617,74.682 96.617,88.054 94.292,88.054 	"/>
	<rect x="121.616" y="71.793" fill="#00502F" width="2.332" height="16.261"/>
	<polygon fill="#00502F" points="145.104,88.054 142.191,88.054 136.064,71.793 138.672,71.793 143.682,86.004 143.728,86.004 
		148.877,71.793 151.323,71.793 	"/>
	<polygon fill="#00502F" points="163.906,71.793 173.016,71.793 173.016,73.843 166.233,73.843 166.233,78.596 172.408,78.596 
		172.408,80.646 166.233,80.646 166.233,86.004 173.016,86.004 173.016,88.054 163.906,88.054 	"/>
	<path fill="#00502F" d="M187.084,71.793h3.985c3.214,0,6.313,0.512,6.313,4.402c0,1.981-1.467,3.38-3.355,3.705v0.046
		c0.724,0.28,1.072,0.627,1.588,1.633l3.07,6.475h-2.654l-2.495-5.636c-0.72-1.588-1.49-1.588-2.724-1.588h-1.396v7.224h-2.332
		V71.793L187.084,71.793z M189.418,78.781h1.98c2.211,0,3.518-0.979,3.518-2.54c0-1.467-1.119-2.398-3.261-2.398h-2.237V78.781z"/>
	<path fill="#00502F" d="M219.332,74.237c-1.189-0.463-1.842-0.676-3.056-0.676c-1.303,0-2.839,0.466-2.839,2.167
		c0,3.12,6.988,2.398,6.988,7.758c0,3.47-2.683,4.846-5.942,4.846c-1.141,0-2.257-0.326-3.33-0.675l0.233-2.169
		c0.79,0.328,2.188,0.793,3.378,0.793c1.327,0,3.191-0.745,3.191-2.656c0-3.637-6.99-2.635-6.99-7.687
		c0-2.893,2.283-4.431,5.223-4.431c1.068,0,2.353,0.189,3.471,0.584L219.332,74.237z"/>
	<rect x="234.077" y="71.793" fill="#00502F" width="2.331" height="16.261"/>
	<polygon fill="#00502F" points="253.46,73.843 248.402,73.843 248.402,71.793 260.85,71.793 260.85,73.843 255.794,73.843 
		255.794,88.054 253.46,88.054 	"/>
	<polygon fill="#00502F" points="276.808,81.253 270.449,71.793 273.169,71.793 278.02,79.084 282.75,71.793 285.474,71.793 
		279.135,81.253 279.135,88.054 276.808,88.054 	"/>
	<path fill="#00502F" d="M252.058,34.341v-4.557c6.157,1.469,11.587,4.576,17.997,5.752c5.869,1.079,11.385-0.719,16.329-3.604
		c-1.839,4.896-4.931,7.404-8.578,11.079c-8.667,3.616-17.368-0.78-25.748-2.947V34.341L252.058,34.341z"/>
	<path fill="#00502F" d="M243.904,34.305v-4.56c-6.156,1.468-11.582,4.574-17.996,5.753c-5.865,1.08-11.05-0.785-15.998-3.675
		c2.086,4.767,4.6,7.476,8.247,11.155c8.667,3.619,17.37-0.779,25.747-2.95V34.305z"/>
	<path fill="#00502F" d="M244.014,54.456V56.6c-7.686-0.516-15.373-3.245-21.188-8.312c7.323,0.98,14.297-2.157,21.188-4.021V54.456
		z"/>
	<path fill="#00502F" d="M252.065,52.207l-0.008-7.941c7.104,1.88,14.267,4.968,21.723,4.021c-6.142,4.946-14.014,7.267-21.723,8.33
		L252.065,52.207z"/>
	<path fill="#00502F" d="M289.92,14.935c0-0.049,0.004-0.098,0.004-0.151h-0.011c-0.145-11.089-4.41-21.527-12.063-29.439
		c-7.862-8.127-18.372-12.602-29.589-12.602c-10.933,0-21.291,4.36-29.172,12.276c-7.897,7.935-12.414,18.792-12.527,29.873
		c-0.014-0.012-0.021-0.014-0.028-0.028l-0.008-0.081c0,0.202,0.008,0.385,0.012,0.577c0,0.05-0.008,0.099-0.008,0.144l0.011,0.008
		c0.085,3.983,0.771,6.892,1.805,10.874c4.761,3.941,10.978,5.741,17.149,4.994c6.587-0.789,12.146-4.457,18.518-5.799h0.065
		c0,0-0.012-10.83,0-10.834c1.701-0.824,5.823-1.285,7.978-0.027c0.007,0.002,0.007,10.65,0,10.593
		c7.984,2.539,15.636,7.282,24.371,5.959c4.1-0.616,7.974-2.098,11.299-4.618c1.448-4.172,2.159-7.113,2.188-11.276l0.003-0.002
		c0-0.122,0.008-0.245,0.008-0.369C289.924,14.983,289.92,14.962,289.92,14.935 M288.127,16.07
		c-4.678,3.162-10.764,5.499-16.203,4.722c-6.785-0.967-12.962-3.36-19.222-5.771c-1.491-0.574-1.521-3.528-1.316-5.335
		c0.067-0.597,0.952-0.291,1.466-0.22c6.241,0.855,12.05,2.768,17.709,5.301c1.693-1.468,5.398-3.873,5.398-3.873
		s-2.824-3.093-4.058-4.708H251.79c0.609-1.521,0.429-6.925-0.092-10.448c-0.569-3.833-1.912-7.4-1.093-11.25
		c0.02-0.073,0.05-0.157,0.073-0.233c0.761-0.94,1.276-2.175,1.276-3.317c0-0.211-0.027-0.419-0.058-0.624
		c-0.016-0.157-0.052-0.314-0.102-0.471c-0.111-0.423-0.272-0.826-0.504-1.183c-0.151-0.292-0.324-0.525-0.717-0.802l0,0
		c-0.673-0.593-1.54-0.959-2.528-0.959c-0.974,0-1.862,0.361-2.56,0.939c-0.021,0.02-0.046,0.04-0.067,0.056
		c-0.172,0.146-0.329,0.308-0.469,0.48c-0.073,0.079-0.139,0.155-0.201,0.241c-0.098,0.142-0.181,0.292-0.261,0.447
		c-0.06,0.112-0.133,0.202-0.187,0.318c-0.106,0.243-0.168,0.477-0.204,0.714c-0.06,0.272-0.093,0.555-0.093,0.843
		c0,1.157,0.483,2.411,1.259,3.351c0.023,0.077,0.054,0.153,0.073,0.23c0.992,3.821,0.307,5.463-0.581,11.226
		c-0.538,3.524-1.04,8.904-0.329,10.469l-20.129-0.011l-3.492,4.679c0,0,3.081,2.319,4.432,3.888
		c4.542-1.311,8.616-3.535,13.429-4.455c1.981-0.38,5.651-1.26,6.149-0.861c0.406,0.328,0.689,4.802-1.385,5.642
		c-1.428,0.578-3.229,1.243-4.757,1.662c-6.391,1.742-12.38,4.943-19.054,4.304c-3.862-0.371-8.008-2.351-11.307-4.777l-0.018-0.785
		c-0.052-10.819,4.342-21.464,12.056-29.215c7.544-7.578,17.45-11.753,27.906-11.753c10.729,0,20.78,4.28,28.305,12.057
		c7.468,7.723,11.581,17.944,11.581,28.794L288.127,16.07z"/>
</g>
</svg>
